<svg xmlns="http://www.w3.org/2000/svg" viewBox="0 0 340 250" preserveAspectRatio="xMidYMid meet">
  <!-- 背景: 三色横排 -->
  <rect x="98"       y="83" width="47.69" height="84.08" fill="#00ff88"/>
  <rect x="145.69"   y="83" width="47.69" height="84.08" fill="#ff6ec7"/>
  <rect x="193.39"   y="83" width="47.69" height="84.08" fill="#4488ff"/>
  <rect x="103" y="88" width="133.08" height="74.08" fill="none" stroke="black" stroke-width="2"/>
  <!-- 像素文字 "東风"，已居中（y偏移15） -->
  <path fill="#FFFFFF" d="M122.83 142.25L127.75 142.25 127.75 147.17 122.83 147.17Z M152.33 142.25L157.25 142.25 157.25 147.17 152.33 147.17Z M122.83 152.08L113 152.08 113 147.17 122.83 147.17Z M157.25 117.67L142.5 117.67 142.5 122.58 157.25 122.58Z M142.5 132.42L157.25 132.42 157.25 127.5 142.5 127.5Z M122.83 127.5L122.83 132.42 137.58 132.42 137.58 127.5Z M122.83 117.67L122.83 122.58 137.58 122.58 137.58 117.67Z M137.58 112.75L137.58 107.83 113 107.83 113 102.92 137.58 102.92 137.58 98 142.5 98 142.5 102.92 167.08 102.92 167.08 107.83 142.5 107.83 142.5 112.75 162.17 112.75 162.17 137.33 152.33 137.33 152.33 142.25 147.42 142.25 147.42 137.33 142.5 137.33 142.5 152.08 137.58 152.08 137.58 137.33 132.67 137.33 132.67 142.25 127.75 142.25 127.75 137.33 117.92 137.33 117.92 112.75Z M157.25 147.17L167.08 147.17 167.08 152.08 157.25 152.08Z M186.75 112.75L191.67 112.75 191.67 117.67 186.75 117.67Z M206.42 107.83L211.33 107.83 211.33 117.67 206.42 117.67Z M191.67 117.67L196.58 117.67 196.58 122.58 191.67 122.58Z M201.5 117.67L206.42 117.67 206.42 122.58 201.5 122.58Z M196.58 122.58L201.5 122.58 201.5 132.42 196.58 132.42Z M191.67 132.42L196.58 132.42 196.58 137.33 191.67 137.33Z M201.5 132.42L206.42 132.42 206.42 137.33 201.5 137.33Z M186.75 137.33L191.67 137.33 191.67 142.25 186.75 142.25Z M206.42 137.33L211.33 137.33 211.33 142.25 206.42 142.25Z M172 147.17L176.92 147.17 176.92 152.08 172 152.08Z M216.25 102.92L181.83 102.92 181.83 147.17 176.92 147.17 176.92 98 221.17 98 221.17 142.25 226.08 142.25 226.08 152.08 221.17 152.08 221.17 147.17 216.25 147.17Z"/>
</svg>
